<?xml version="1.0" encoding="UTF-8"?>
<svg xmlns="http://www.w3.org/2000/svg" width="576.45" height="597.9" viewBox="191.77 -2.45 576.45 597.9" >
  <!-- Created using SVG Map Generator: dojo.amcharts.com/svg-map-generator -->
  <style>
    .land { fill: #3a8c5f; fill-opacity: 0.82; stroke: #1a4a30; stroke-width: 0.5; stroke-opacity: 0.7; }
  </style>
  <g id="polygons">
    <path d="M673.33,486.66L674.29,487.9L673.68,492.04L675.04,493.22L674.4,497.12L671.7,499.86L670.3,494.51L671.56,493.81L671.81,489.27ZM669.7,512.9L671.11,515.07L671.29,517.2L669.64,520.47L668.11,519.75L667.04,517.41L667.38,515.59ZM674.81,485.2L676.18,487.41L674.08,489.42ZM693.17,580.63L694.01,582.28L691.91,584.58L691.6,582.07ZM686.64,569.24L688.31,571.1L686.18,571.9L685.6,569.67ZM676.11,474.1L676.7,473.96L677.66,473.39L678.81,477.36L678.57,481.54L677.13,485L673.3,484.84L673.46,479.58L674.35,478.13L674.05,475.39ZM676.7,473.96L676.11,474.1L675.04,471.31L676.04,464.32L676.68,462.43L678.97,461.32L680.97,465.08L679.82,468.16L679.88,470.08L677.91,470.48L676.34,473.09ZM695.82,584.62L696.6,587.64L697.78,589.35L696.79,591.25L696.88,593L694.62,592.65L693.81,590.08L692.19,589.2L692.65,585.61ZM675.03,545.33L675.87,547.39L673.93,547.67L673.72,545.92Z" class="land" id="IN-AN" title="Andaman and Nicobar Islands"/>
    <path d="M469.35,398.83L468.53,399.31L469.56,401.71L462.39,405.09L458,406.76L454.48,405.8L451.57,406.13L449.07,407.33L446.64,412.48L446.73,413.36L444,416.15L443.22,418.1L440.38,418.47L440.05,415.93L437.73,415.14L434.8,415.69L430.92,417.79L429.55,419.27L428.2,423.32L426.21,426.38L425.2,430.93L426.51,437.72L428.16,440.54L426.8,449.68L429.06,455.6L427.61,458.15L425.26,460.14L427.43,462.07L428.9,462.1L430.38,463.39L427.24,462.28L425.62,461.13L423.51,462.82L422.8,465.08L416.03,466.86L415.16,465.57L413.06,465.33L412.71,467.51L410.69,469.77L408.93,469.01L407.64,471.53L406,471.4L404.25,470.17L402.22,469.98L398.81,470.57L397.07,472.09L396.45,476.17L392.26,479.28L390.73,478.48L389.37,476.52L389.77,474.66L391.81,473.08L393.59,473.62L393.9,471.05L396.2,468.6L396.36,466.53L392.01,464.71L392.7,460.34L389.5,460.16L386.3,458.18L387.27,455.18L384.38,453.03L381.48,453.34L380.7,455.73L378.16,456.46L375.48,458.23L373.75,455.3L368.94,454.81L368.7,456.87L365.28,457.11L364.81,455.7L366.13,453.52L364.08,451.62L364,449.57L365.82,448.67L365.89,451.02L368.32,452.23L371.83,451.61L373.18,450.03L375.24,449.1L375.16,446.73L374.1,445.99L370.91,446.65L368.41,445.44L366.4,447.36L363.06,445.27L362.88,442.87L360.73,440.26L362.46,436.3L362.77,433.16L360.8,433.04L361.45,430.67L363.01,431.89L366.97,432.45L368.45,430.09L368.65,427.37L366.64,426.14L365.97,423.92L366,420.02L366.72,414.82L370.31,413.67L375.42,414.39L378.35,415.26L381.1,415.48L382.84,414.88L387.19,416.23L389.71,414.23L390.07,412.23L393,411.25L396,411.74L397.14,410.9L400.24,412.38L402.79,409.27L405.26,408.02L408.94,408.14L409.07,402.88L409.87,401.83L413.02,401.42L414.4,400.48L417.36,399.86L419.85,398.54L423.44,400.25L425.63,396.89L424.1,395.91L425.16,393.91L429.4,393.02L430.52,395.76L433.21,397.35L435.3,397.88L435.72,394.67L433.83,394.85L431.28,393.81L433.72,392.24L435.25,390.52L440.59,392.73L442.02,389.28L443.7,389.71L447.06,388.67L447.43,386.91L449.11,386.96L450.24,385.57L452.02,386.14L453.55,384.43L453.73,381.66L455.18,378.99L459.21,376.92L458.74,375.71L462.54,373.78L463.96,372.49L466.63,372.77L468.72,373.89L469.95,372.83L470.04,367.4L470.57,365.58L472.78,363.09L473.74,363.74L473.98,365.98L475.26,366.39L474.87,368.32L478.52,367.13L479.15,365L481.77,366.73L483.43,366.08L484.09,360.79L485.7,358.47L487.05,359.07L490.08,357.93L491.16,356.77L489.08,354.21L492.46,353.6L494.94,352.28L496.76,353.69L498.53,353.85L500.16,357.57L505.67,358.41L509.22,358.09L509.29,356.62L511.12,355.7L512.3,353.6L514.31,351.58L517.62,352.61L514.13,356.44L513.56,358.08L511.84,359.63L509.69,362.7L505.17,366.73L505.14,367.56L497.2,371.39L494.32,373.26L491.13,376.69L489.85,379.01L487.28,381.64L475.4,387.42L470.71,390.9L469.32,392.59L468.5,395.46L469.59,396.37Z" class="land" id="IN-AP" title="Andhra Pradesh"/>
    <path d="M723.07,203.28L722.5,200.06L723,199.27L722.25,196.29L727.39,194.47L728.54,191.86L729.98,192.63L734.22,191.41L736.19,191.41L738.38,189.91L733.85,184.9L733.28,182.79L736.6,179.73L737.58,178.14L734.61,177.96L730.31,178.35L728.53,179.84L725.95,180.62L724.62,180.05L719.02,181.94L707.82,186.19L703.75,184.56L703.88,186.88L701.89,187.75L700,190L697.95,191.35L694.85,194.44L692.44,197.7L688.79,198.34L686.01,197.85L679.57,198.76L676.69,196.98L672.5,196.37L671.06,197.88L668.59,197.85L665,199.04L661.7,199.21L661.61,196.98L660.24,195.86L660.04,193.95L660.65,189.28L659.95,187.72L652.67,187.62L650.91,184.71L652.2,183.28L652.29,181.42L656.13,181.24L657.99,183.11L660.67,182.24L663.71,180.28L665.78,181.87L669.41,180.63L670.58,181.03L674.08,177.73L672.58,176.29L673.05,175.05L675.26,173.55L677.14,173.51L679.66,171.57L683.49,170.98L682.77,168.89L684.6,167.62L685.8,164.96L688.82,164.11L691.35,164.62L695.75,163.65L697.35,164.35L698.83,162.31L698.7,161.02L701.84,158.8L703.01,156.26L705.8,154.92L707.26,153.46L709.74,153.42L711.12,151.07L715.9,154.29L718.86,155.35L723.33,155.75L723.64,156.78L726.45,157.24L727.88,156.51L728.96,153.71L729.9,153.63L733.66,150.92L737.18,150.4L739.6,148.82L741.67,151.15L743.13,154.77L740.97,156.87L742.89,159.03L744.82,157.28L746.57,157.17L748.2,158.48L750.1,162.25L749.51,163.37L746,166.46L745.3,169.79L749.39,168.44L751.06,168.38L757.56,171.32L759.45,170.27L761.04,171.65L763.17,172.1L764.76,173.67L764.28,175.18L765.78,177.05L765.26,179.55L762.66,179.29L758.19,182.44L755.62,184.96L755.9,188.06L761,194.45L759.04,194.99L755.48,192.48L753.76,190.18L750.03,189.89L747.25,191L742.62,191.54L738.74,193.29L736.77,196.09L734.26,196.73L732.74,199.34L730.4,200.64L728.86,200.44L726.82,203.01L724.35,203.88Z" class="land" id="IN-AR" title="Arunachal Pradesh"/>
    <path d="M661.7,199.21L665,199.04L668.59,197.85L671.06,197.88L672.5,196.37L676.69,196.98L679.57,198.76L686.01,197.85L688.79,198.34L692.44,197.7L694.85,194.44L697.95,191.35L700,190L701.89,187.75L703.88,186.88L703.75,184.56L707.82,186.19L719.02,181.94L724.62,180.05L725.95,180.62L728.53,179.84L730.31,178.35L734.61,177.96L737.58,178.14L736.6,179.73L733.28,182.79L733.85,184.9L738.38,189.91L736.19,191.41L734.22,191.41L729.98,192.63L728.54,191.86L727.39,194.47L722.25,196.29L720.57,197.78L718.13,198.73L716.18,198.45L714.53,200.93L712.27,202.37L709.49,202.8L706.8,204.69L706.63,206.3L702.46,207.71L702.24,209.99L700.92,210.34L698.9,213.34L697.92,216.6L698.4,218.31L696.5,219.76L693.94,217.99L693.03,219.71L690.43,221.43L689,223.48L685.7,225.63L688.25,227.83L688.49,230.28L686.81,231.53L685.78,234.47L684.07,235.98L684.34,237.3L681.25,242.72L679.2,248.05L675.84,248.55L674.59,245.74L673.13,249L670,252.48L668.14,252.97L667.87,251L665.4,251.02L664.11,246.07L664.5,243.07L665.43,241.52L664.3,238.33L665.43,237.92L667.26,239.29L669.48,238.22L667.93,235.73L669.87,233.6L671.77,234.04L672.66,232.88L675.36,232.05L674.5,229.77L671.31,227.1L672.22,225.81L669.42,224.13L668.08,222.01L664.07,222.3L662.73,223.17L662.65,217.82L664.31,215.51L659.41,215.94L658.05,216.75L656.04,214.41L654.31,215.58L654.1,217.64L651.26,216.09L648.69,219.86L646.51,219.9L645.38,221.7L643.74,222.04L643.83,219.5L641.21,220.26L638.85,217.77L635.02,217.58L632.7,217.97L629.72,216.44L623.94,217.83L622.69,217.5L619.28,220.18L618.26,221.94L620.7,224.54L617.81,225.68L618.11,224L616.72,220.33L618.21,217.91L614.85,213.48L615.47,210.43L617.56,209.2L617.56,202.94L623.23,201.94L624.57,200L626.27,200.11L628.4,199.05L631.34,201.03L634.33,201.69L641.03,201.45L641.87,200.66L646.57,201.45L647.98,200.35L649.64,201.25L653.45,200.95L657.57,198.77L660.47,200.12Z" class="land" id="IN-AS" title="Assam"/>
    <path d="M583.22,206.24L585.58,207.4L586.87,209.8L583.98,211.78L580.52,215.15L578.05,215.87L577.67,219.26L579.39,219.65L579.15,221.25L582.09,222.81L581.55,224.84L576.42,228.41L578.33,230.9L576.98,232.03L574.95,230.27L572.27,229.86L570.8,231.63L567.88,231.97L567.24,234.6L564.41,235.87L564.63,238.59L563.43,240.24L562.52,244.06L560.16,243.35L558.68,245.16L557.16,243.81L555.03,244.97L553.74,244.09L551.84,245.81L550.79,248.73L548.8,247.26L547.88,245.01L546.18,243.96L544.54,244.13L544.36,242.13L542.91,240.67L540.95,241.6L539.52,240.27L536.76,239.83L533.62,244.13L531.85,245.16L527.85,245.63L523.36,247.82L520.31,248.66L519.96,246.88L518.3,245.58L511.61,249.32L509.29,248.2L509.1,246.1L506.39,245.07L504.85,246.52L503.62,243.95L501.3,245.22L497.15,246.06L492.86,245.62L493.71,243.68L490.68,240.58L490.03,238.89L490.1,233.91L489.67,232.79L493.67,230.12L495.3,229.89L497.46,228.3L498.77,228.29L501.07,225.4L504.2,223.85L508.95,223.17L510.15,221.67L512.28,223.06L514.86,220.78L513.07,219.14L511,218.85L505.98,216.24L503.06,213.89L505.82,211.92L506.06,209.41L504.11,209.2L500.78,206.58L503.64,206.08L504.3,204.13L508.04,204.99L509.09,203.32L507.65,200.88L503.72,199.25L503.5,196.25L501.51,195.31L502.29,193.2L500.7,192.04L499.93,190.25L500.16,188.73L503.28,188.63L504.61,187.53L507.73,188.27L508.5,189.6L514.9,190.5L516.29,192.92L515.35,196.2L519.01,196.75L521.72,198.78L526.19,199.75L526.47,201.86L528.91,202.2L534.8,199.64L536.76,201.14L536.72,203.91L539.02,205.59L542.52,203.67L545.74,204.69L548.38,204.59L552.59,206.19L556.31,208.46L558.31,208.14L561.88,206.31L564.77,208.82L568.81,208.74L570.73,208.11L573.46,209.28L577.07,207.54L581.03,209.05L583.05,208.16Z" class="land" id="IN-BR" title="Bihar"/>
    <path d="M361.9,124.85L360.06,124.65L359.36,123.39L362.06,123.32Z" class="land" id="IN-CH" title="Chandigarh"/>
    <path d="M489.43,253.97L493.03,255.41L494.1,258.65L496.73,259.48L497.11,262.19L498.29,263.81L503.15,264.9L502.03,268.09L504.08,269.1L503.36,272.86L505.24,273.97L505.6,276.28L509.97,276.06L508.3,280.21L507.03,282.06L504.28,282.7L502.75,284.97L503.52,286.08L502.78,287.97L499.97,288.44L497.85,290.42L495.75,290.78L493.65,294.09L493.59,295.9L494.55,298.25L492.72,298.82L492.58,300.25L490.56,302.78L489.65,305.07L490.81,306.96L488.39,307.44L486.82,312.13L485.44,312.81L482.23,311.35L480.72,311.87L475.95,311.86L475.68,314.07L473.01,316.68L472.48,318.24L470.28,317.07L470.05,319.53L470.7,322.16L469.83,323.54L471.9,326.05L471.2,327.82L471.59,330.44L471.15,333.23L475.22,334.68L477.35,334.59L477.26,337.71L472.16,336.3L470.14,337.73L468,334.44L466.98,334.83L462.33,332.4L460.86,333.69L460.53,336.2L464.65,338.65L464.38,343.45L465.82,345.7L467.07,345.82L466.46,348.8L467.64,352.23L468.18,355.77L466.87,356.06L466.64,358.11L462.85,360.08L462.59,362.12L458.82,365.56L454.22,368.54L453.23,374.21L451.42,377.41L448.85,377.3L447,376.51L444.51,377.74L442.77,372.03L438.67,370.25L439.71,368.64L438.51,365.6L436.67,363.45L433.74,361.3L430.96,362.12L429.51,359.54L431.09,357.46L429.51,355.41L430.63,351.24L431.84,350.3L433.59,347.44L435.39,346.15L436.23,347.99L438.95,348.39L440.83,346.93L441.75,344.88L440.49,342.98L437.14,342L437.32,340.44L433.46,337.84L434.96,334.65L434.86,332.25L431.98,331.58L431.77,329.66L434.28,329.11L436.38,327.86L435.75,326.64L436.46,322.56L434.96,319.39L434.88,316.09L433.19,316.12L432.57,314.6L433.23,311.4L436.72,309.88L437.13,308.31L438.58,305.53L438.35,300.83L440.17,300.13L440.67,296.44L442.12,292.84L443.85,293.97L444.25,290.69L446.1,289.41L446.03,286.53L448.15,286.32L450.2,284.9L453.28,285.51L455.95,284.61L456.74,282.79L458.83,282.17L458.96,278.05L462.31,276.41L462.27,274.04L463.95,274L466.44,272.79L467.13,269.19L465.41,267.77L463.01,267.47L461.84,265.14L460.09,265.54L458.3,264.44L455.77,265.63L455.69,263.8L457.35,261.42L455.6,258.83L456.84,257.42L459.22,259.65L461.84,258.45L464.37,259.48L467.39,259.26L469.92,259.81L474.97,259.43L476.35,257.77L479.32,256.69L481.89,258.39L484.79,258.35L486.81,257.51Z" class="land" id="IN-CT" title="Chhattisgarh"/>
    <path d="M241.37,319.43L242.7,314.98L245.55,315.87L245.73,318.23L244.72,319.42L245.58,320.48L244.29,320.85Z" class="land" id="IN-DD" title="Daman and Diu"/>
    <path d="M369.09,160.52L372.02,165.58L372.05,167.54L370.19,168.02L368.68,169.51L366.85,167.32L363.06,167.54L362.24,166.6L364.54,163.69L364.3,161.43L366.92,160.17Z" class="land" id="IN-DL" title="Delhi"/>
    <path d="M291.23,332.01L289.72,332.75L286.46,331.84L286.41,330.24L289.16,329.85Z" class="land" id="IN-DN" title="Dadra and Nagar Haveli"/>
    <path d="M300.33,418.25L305.53,417.91L307.15,420.6L309.07,419.7L311.6,419.62L311.63,422.85L313.3,426.71L312.53,431.67L310.75,433.99L308.51,434.5L305.95,431.16L304.18,424.67L301.98,422.75Z" class="land" id="IN-GA" title="Goa"/>
    <path d="M195.97,259.78L197.3,259.98L196.59,262.74L194.22,262.83ZM249.87,242.61L253.61,244.04L257.34,242.74L260.74,243.54L264.96,242.72L266.28,243.67L268.41,242.12L270.62,243.91L271.89,243.55L273.17,245.4L274.4,245.13L276.49,247.98L278.06,246.02L281.05,246.99L281.74,248.88L284.4,248.79L285.5,249.56L286.99,246.73L289.11,247.6L290.32,249.08L288.61,252.33L291.38,254.03L295.1,254.96L295.32,257.31L294.09,258.67L295.23,260.29L298.31,262.72L301.23,267.48L303.31,266.81L304.53,268.96L307.24,269.05L309.22,270.29L309.09,272.06L311.42,271.88L312.93,274.34L314.45,277.54L315.99,278.34L314.13,282.56L311.8,282.54L309.61,285.03L311.66,287.33L310.35,288.87L308.01,288.12L307.76,289.58L309.01,291.01L308.51,294.88L309.46,296.08L302.88,298.64L304.57,301.06L303.16,303.06L303.87,305.07L307.97,303.82L310.25,303.82L311.5,305.71L307.92,305.34L305.99,307.1L305.59,308.96L303.31,309.54L303.12,311.42L301.75,312.55L302.18,314.58L304.76,315.12L305.61,319.84L304.36,320.09L303.43,322.32L301.66,323.28L299.48,323.04L296.45,320.34L294.89,321.8L296.81,323.81L295.42,326.27L295.42,330.36L293.09,330.34L291.23,332.01L289.16,329.85L286.41,330.24L284.53,329.97L283.1,331.95L281.84,331.72L282.2,328.67L284.73,324.59L284.98,322.89L282.91,316.82L278.91,309.08L279.7,302.69L277.92,301.76L278.55,298.63L277.23,296.06L278.12,292.22L277.99,290.41L274.48,291.16L272.32,297.15L272.57,300.27L273.38,302.47L271.76,306.19L268.99,309.97L269.61,310.94L266.92,312.42L263.85,313.38L258.86,315.77L256.4,317.34L251.87,318.67L249.29,319.95L245.58,320.48L244.72,319.42L245.73,318.23L245.55,315.87L242.7,314.98L241.37,319.43L236.77,317.68L230.11,312.74L222.38,304.22L213.1,296.31L207.71,290.52L207.29,289.06L208.25,287.06L212.35,286.87L211.64,289.04L213.11,290.12L219.57,288.2L221.38,288.14L222.83,285.89L224.19,287.34L227.23,284.79L228.92,284.14L231.35,284.36L234.1,280.32L234.97,276.93L232.82,275.97L230.75,277.05L224.21,278.5L222.39,280.66L219.42,279.64L217.81,280.01L215.51,278.93L212.42,278.74L204.91,274.25L203.83,273.99L200.54,271.37L201.43,268.77L198.79,266.43L198.52,263.17L202.99,258.75L200.17,258.3L199.66,256.68L203.63,256.71L204.09,250.19L205.56,251.87L207.51,250.54L208.56,251.53L210.37,250.68L212.47,251.35L214.63,250.53L218.38,250.96L220.33,250.51L222.76,252.53L228.17,252.7L230.49,250.26L239.43,247.72L239.42,251.01L243.96,251.59L247.74,248.89L248.17,243.6Z" class="land" id="IN-GJ" title="Gujarat"/>
    <path d="M343.32,87.78L344.32,86.46L344.1,84.23L341.79,82.01L343.21,80.84L344.76,81.72L347.66,79.37L350.47,78.83L353.5,75.81L357.23,75.41L360.13,75.95L363.02,77.23L365.4,79.67L368.1,79.85L372.42,82.89L376.88,80.57L379.4,80.02L383.37,84.06L383.14,85.49L384.7,87.58L386.87,86.09L389.21,85.96L392.32,84.14L392.66,86.86L390.86,87.75L391.13,89.75L393.1,89.04L395.21,90.87L394.18,93.51L396.67,94.79L396.3,95.97L400.16,99.08L398.6,103.13L399.44,105.12L401.34,106.62L398.9,108.52L400.64,109.81L401.3,112.21L402.82,113.61L404.58,116.43L402.13,116.58L400.63,114.67L397.74,114.87L396.72,114.05L394.26,114.69L392.03,112.98L386.76,114.95L382.83,115.65L381.05,119.28L380.91,121.46L378.93,123.22L380.71,125.28L379.74,126.56L381.1,128.27L376.47,130.37L376.7,130.76L373.6,130.29L372.22,129.24L369.4,128.88L368.41,124.76L365.69,123.74L363.51,120.7L360.92,120.52L357.78,118.61L358.28,114.51L354.61,112.69L352.86,110.54L351.63,112.43L349.21,112.67L348.83,110.57L345.87,106.01L344.29,102.66L343.75,100.06L339.74,97.87L338.42,94.48L340.65,93.71L342.76,91.64L344.49,90.9L342.9,89.12Z" class="land" id="IN-HP" title="Himachal Pradesh"/>
    <path d="M360.92,120.52L363.51,120.7L365.69,123.74L368.41,124.76L369.4,128.88L372.22,129.24L373.6,130.29L376.7,130.76L373.56,136.2L370.73,137.35L368.96,140.14L368.24,144.06L367.11,146.13L368.16,149.24L367.72,150.52L367.82,155.83L369.63,157.79L369.09,160.52L366.92,160.17L364.3,161.43L364.54,163.69L362.24,166.6L363.06,167.54L366.85,167.32L368.68,169.51L370.19,168.02L372.05,167.54L374.73,169.41L375.09,172.02L374.82,176.65L375.61,178.85L370.84,181.31L367.91,181.9L366.18,181.05L364.85,184.24L363.09,183.41L364.23,179.11L363.83,177.57L364.68,174.7L362.5,173.07L361.34,174.44L356.38,176.75L355.06,174.49L353.21,174.81L348.86,177.54L347.55,180.1L345.1,180.17L346.02,176.8L344.57,175.69L346.86,173.12L343.65,169.8L338.55,166.81L337.11,165.47L336.28,161.11L334.73,157.59L333.67,156.53L333.97,152.77L328.33,153.46L325.29,152.38L324.78,150.76L323.09,149.98L321.44,150.93L318.3,150.81L317.54,149.7L318.65,147.57L317.71,146.86L318.47,143.14L315.72,142.47L317.46,140.93L316.78,139.41L319.15,139.82L322.31,138.44L324.56,139.3L326.01,141.11L327.49,140.67L329.78,141.46L330.74,143.16L329.3,144.91L331.71,145.94L334.92,142.07L336.24,143.01L340.05,142.05L342.47,141.98L343.45,143.26L346.52,143.27L349.44,140.48L349.56,137.98L350.82,136.25L353.47,135.8L355.65,136.8L358.11,136.23L358.35,134.26L357.27,133.27L360.68,129.69L362.14,129.79L363.73,126.54L361.9,124.85L362.06,123.32Z" class="land" id="IN-HR" title="Haryana"/>
    <path d="M492.86,245.62L497.15,246.06L501.3,245.22L503.62,243.95L504.85,246.52L506.39,245.07L509.1,246.1L509.29,248.2L511.61,249.32L518.3,245.58L519.96,246.88L520.31,248.66L523.36,247.82L527.85,245.63L531.85,245.16L533.62,244.13L536.76,239.83L539.52,240.27L540.95,241.6L542.91,240.67L544.36,242.13L544.54,244.13L546.18,243.96L547.88,245.01L548.8,247.26L550.79,248.73L551.84,245.81L553.74,244.09L555.03,244.97L557.16,243.81L558.68,245.16L560.16,243.35L562.52,244.06L563.43,240.24L564.63,238.59L564.41,235.87L567.24,234.6L567.88,231.97L570.8,231.63L572.27,229.86L574.95,230.27L576.98,232.03L576.76,234.56L578.73,235.8L580.62,238.38L578.96,239.23L578.93,244.93L577.34,245.27L577.42,247.99L576.36,250.01L574.04,251.81L575.05,253.02L571.21,253.7L571,255.69L566.2,255.15L567.31,257.95L563.97,259.98L559.47,258.31L558.02,259.66L557.45,262.09L555.53,261.95L552.29,263.24L550.55,263.22L548.94,264.92L549.22,266.11L546.69,267.34L542.85,265.89L539.29,266.35L539.53,269.22L538.52,270.41L540.25,273.03L542.64,272.75L546.09,275.73L547.77,275.31L550.41,277.07L550.08,279.95L551.86,281.42L554.04,281.97L554.7,283.89L556.82,283.96L559.3,289.41L557.61,290.99L556.1,290.96L554.58,290.05L548.84,288.41L547.41,286.44L542.35,284.97L541.33,290.41L542.44,291.55L540.07,295.84L537.23,295.38L534.95,293.41L532.89,293.48L530.05,292.07L528.2,293.08L526.84,295.17L525.69,293.84L522.78,292.98L523.69,289.84L523.54,285.8L520.23,286.98L513.03,286.94L511.06,288.34L508.37,288.57L505.69,287.32L505.35,285.95L502.75,284.97L504.28,282.7L507.03,282.06L508.3,280.21L509.97,276.06L505.6,276.28L505.24,273.97L503.36,272.86L504.08,269.1L502.03,268.09L503.15,264.9L498.29,263.81L497.11,262.19L496.73,259.48L494.1,258.65L493.03,255.41L489.43,253.97L490.97,250.74L490.46,249.79L490.8,246.13Z" class="land" id="IN-JH" title="Jharkhand"/>
    <path d="M393.1,89.04L391.13,89.75L390.86,87.75L392.66,86.86L392.32,84.14L389.21,85.96L386.87,86.09L384.7,87.58L383.14,85.49L383.37,84.06L379.4,80.02L376.88,80.57L372.42,82.89L368.1,79.85L365.4,79.67L363.02,77.23L360.13,75.95L357.23,75.41L353.5,75.81L350.47,78.83L347.66,79.37L344.76,81.72L343.21,80.84L341.79,82.01L344.1,84.23L344.32,86.46L343.32,87.78L340.16,90.88L334.35,92.72L332.53,92.46L328.94,90.95L326.93,89.43L325.8,90.3L322.98,89.35L320.29,89.57L319.19,87.09L319.86,86.17L318.64,84.22L315.91,85.13L313.21,84.9L308.45,82.14L304.17,80.25L301.18,80.25L298.2,77.35L298.76,75.39L297.64,71.55L298.67,70.54L297.92,68.04L298.48,65.94L297.08,64.76L298.11,62.74L297.36,60.33L295.96,59.17L295.78,55.11L294.84,53.17L295.22,49.93L296.43,48.85L300.06,47.84L301.37,44.61L305.84,44.38L306.96,43.69L308.55,39.93L308.55,38.39L306.87,37.02L302.67,35.71L300.9,33.88L303.14,31.06L302.21,29.38L300.25,29.46L292.89,28.54L291.12,27.22L289.62,23.87L284.22,22.36L282.35,23.34L279.56,22.51L279.46,18.8L280.77,15.85L285.34,12.98L289.53,8.99L290.37,6.89L292.23,5.91L302.86,6.59L304.17,2.84L305.84,4.04L308.27,4.49L311.16,2.99L319.55,0L323.56,0.9L324.67,1.94L328.5,1.79L331.39,0.45L332.88,1.05L339.8,9.02L346.05,11.88L348.66,13.84L351.74,14.67L355.65,17.77L358.17,17.99L360.31,19.89L359.94,22.39L361.71,25.2L367.3,25.8L370.75,26.64L372.8,28.16L374.57,31.51L377.84,31.82L381.59,30.42L387.44,29.76L389.33,27.32L391.48,25.8L396.04,24.66L397.91,23.52L401.17,23.3L405.55,24.74L406.67,22.24L409.37,20.87L412.92,23.52L419.53,24.89L422.7,23.83L425.03,26.94L428.58,28.77L428.86,33.65L426.99,36.94L426.9,40.08L424.47,45.84L419.59,47.78L418.84,50.33L415.12,50.33L414.18,51.02L415.69,54.73L414.87,57.64L411.78,59.77L407.82,58.8L403.57,59.87L403.1,60.79L404.21,63.36L406.31,66.24L403.57,68.53L403.06,71.43L405.96,73.67L406.12,74.99L408.29,75.72L412.69,75.96L411.56,79.88L415.11,84.18L415.35,87.17L413.44,87.58L410.77,89.53L409.72,88.81L407.13,89.97L406.7,91.79L404.2,92.36L400.36,89.76L399.67,85.43L397.31,87.17L395.73,87.07Z" class="land" id="IN-JK" title="Jammu and Kashmir"/>
    <path d="M309.07,419.7L310.61,417.68L313.75,417.28L314.28,414.78L316.19,411.13L316.46,408.31L312.93,406.47L313.06,401.99L317.41,400.42L319.08,401.55L320.29,398.82L323.37,397.73L325,394.39L327.98,394.24L330.44,396.36L331.86,394.12L335.38,393.52L335.87,394.35L339.44,394.01L339.51,391.38L338.52,389.89L339.15,388.11L338.09,387.28L338.67,383.87L341.94,385.97L344.47,386.88L350.61,385.88L352.56,386.37L353.14,384.71L352.32,381.57L355.41,380.27L356.09,378.35L360.09,378.78L361.56,376.2L363.79,375.29L363.91,371.34L364.53,370L366.56,370.63L371.65,364.72L373.47,366L374.56,368.52L376.22,367.91L378.1,373.75L376.21,377.19L376.45,378.58L374.26,379.67L374.06,381.83L378.87,383.32L374.29,385.97L372.49,390.06L374.5,391.19L375.22,393.09L374.32,395.01L374.53,401.39L371.01,404.94L377.03,406.22L374.91,409.73L375.42,414.39L370.31,413.67L366.72,414.82L366,420.02L365.97,423.92L366.64,426.14L368.65,427.37L368.45,430.09L366.97,432.45L363.01,431.89L361.45,430.67L360.8,433.04L362.77,433.16L362.46,436.3L360.73,440.26L362.88,442.87L363.06,445.27L366.4,447.36L368.41,445.44L370.91,446.65L374.1,445.99L375.16,446.73L375.24,449.1L373.18,450.03L371.83,451.61L368.32,452.23L365.89,451.02L365.82,448.67L364,449.57L364.08,451.62L366.13,453.52L364.81,455.7L365.28,457.11L368.7,456.87L368.94,454.81L373.75,455.3L375.48,458.23L378.16,456.46L380.7,455.73L381.48,453.34L384.38,453.03L387.27,455.18L386.3,458.18L389.5,460.16L392.7,460.34L392.01,464.71L396.36,466.53L396.2,468.6L393.9,471.05L393.59,473.62L391.81,473.08L389.77,474.66L389.37,476.52L387.41,476.18L385.96,474.76L384.67,475.68L383.43,474.06L381.11,475.85L379.77,478.26L377.01,478.39L376.77,481.34L377.69,481.92L377.27,484.34L374.56,487.31L379.67,488L380.5,489.21L378.38,492.49L374.93,492.61L373.65,496.17L371.01,495.24L367.45,495.93L365.52,495.15L363.46,495.53L361.83,499.18L356.8,498.93L355.71,497.2L354.12,497.96L349.43,493.95L347.94,494.2L347.94,491.86L345.71,492.79L343.4,492.44L341.89,489.89L340.27,490.06L337.52,488.32L333.4,482.43L330.58,480.25L329.16,478.02L323.6,476.49L322.7,474.57L320.23,464.85L319.75,459.24L318.5,454.68L316.43,451.62L313.54,442.2L312.67,441.85L311.83,438.04L310.62,437.98L309.02,436.28L308.51,434.5L310.75,433.99L312.53,431.67L313.3,426.71L311.63,422.85L311.6,419.62Z" class="land" id="IN-KA" title="Karnataka"/>
    <path d="M323.6,476.49L329.16,478.02L330.58,480.25L333.4,482.43L337.52,488.32L340.27,490.06L341.89,489.89L343.4,492.44L345.71,492.79L347.94,491.86L347.94,494.2L349.43,493.95L354.12,497.96L352.68,499.47L350.25,499.82L351.27,501.59L353.87,502.39L356.41,505.16L355.38,506.92L358.04,507.25L360.31,508.51L358.55,512.38L361.85,513.6L363.42,515.39L362.09,519.03L361.65,522.37L361.89,524.71L364.86,526.41L368.63,523.71L370.93,526.44L369.33,533.13L369.51,535.96L368.41,538.23L371.4,538.48L373.2,540.37L370.66,544.41L370.37,547.31L368.02,549.88L370.19,552.87L368.47,555.26L370.63,559.18L367.32,563.88L364.94,562.17L358.21,553.32L356.53,552.03L355.99,549.75L352.45,541.95L350.47,531.18L347.77,523.04L344.06,514.97L343.03,510.53L340.64,503.97L339.6,502.1L338.32,501.54L336.84,497.52L334.15,494.45L333.18,494.04L331.43,491.16L329.77,489.42L325.69,481.5Z" class="land" id="IN-KL" title="Kerala"/>
    <path d="M282.94,505.83L282.7,506.67L282.37,507.4L282.7,506.2Z" class="land" id="IN-LD" title="Lakshadweep"/>
    <path d="M309.46,296.08L312.28,296.44L314.21,294.78L316.94,296.97L316.62,300.54L317.56,301.42L322.11,302.82L324.29,302.43L327.34,303.71L328.47,305.78L330.52,306.73L336.96,307.49L343.62,306.95L346.85,307.87L347.75,307.46L349.21,311.1L349.2,313.13L353.2,313.27L355.38,310.94L358.04,311.01L358.07,308.22L361.2,305.64L361.42,303.07L363.49,303.01L366.85,300.61L370.98,300.59L371.04,299.83L374.75,299.66L376.63,302.49L376.55,304.4L374.4,303.88L374.98,307.38L376.89,307.64L381.11,306.71L383.84,307.2L388.36,305.01L388.59,303.83L393.33,302.99L396.51,305.24L403.31,305.23L402.95,303.17L406.38,303.04L409.13,300.59L411.49,301.48L414.23,301.57L415.17,304.12L419.02,302.98L421.46,304.38L425.51,303.91L427.95,302.35L429.36,302.63L431.53,304.58L432.33,306.2L435.89,308.42L437.13,308.31L436.72,309.88L433.23,311.4L432.57,314.6L433.19,316.12L434.88,316.09L434.96,319.39L436.46,322.56L435.75,326.64L436.38,327.86L434.28,329.11L431.77,329.66L431.98,331.58L434.86,332.25L434.96,334.65L433.46,337.84L437.32,340.44L437.14,342L440.49,342.98L441.75,344.88L440.83,346.93L438.95,348.39L436.23,347.99L435.39,346.15L433.59,347.44L431.84,350.3L430.63,351.24L429.51,355.41L431.09,357.46L429.51,359.54L426.43,360.36L424.5,358.59L422.93,358.24L422.98,353.59L421.48,351.97L423.15,350.67L423.73,346.15L423.09,344.9L419.17,342.18L415.29,343.25L413.87,344.25L411.89,342.81L409.43,342L408.14,344.98L405.01,343.42L404.04,341.28L401.88,341.14L401.62,339.14L399.09,338.97L396.88,337.98L392.84,337.61L391.81,340.02L390.33,341.01L391.1,345.06L388.61,345.94L388.38,349.38L385.94,348.7L384.04,347.32L382.31,348.09L382.26,350.47L380.37,352.79L380.48,354.38L382.17,354.95L383.91,357.5L381.85,357.79L379.87,362.74L377.22,364.32L375.62,366.77L376.22,367.91L374.56,368.52L373.47,366L371.65,364.72L366.56,370.63L364.53,370L363.91,371.34L363.79,375.29L361.56,376.2L360.09,378.78L356.09,378.35L355.41,380.27L352.32,381.57L353.14,384.71L352.56,386.37L350.61,385.88L344.47,386.88L341.94,385.97L338.67,383.87L338.09,387.28L339.15,388.11L338.52,389.89L339.51,391.38L339.44,394.01L335.87,394.35L335.38,393.52L331.86,394.12L330.44,396.36L327.98,394.24L325,394.39L323.37,397.73L320.29,398.82L319.08,401.55L317.41,400.42L313.06,401.99L312.93,406.47L316.46,408.31L316.19,411.13L314.28,414.78L313.75,417.28L310.61,417.68L309.07,419.7L307.15,420.6L305.53,417.91L300.33,418.25L298.57,414.56L296.99,414.07L294.14,404.22L293.19,402.77L293.09,397.02L292.42,395.35L292.76,393.51L291.37,388L291.77,387.2L290.64,384.57L289.64,379.18L287.58,374.72L286.42,371.03L286.85,368.26L284.94,364.35L285.59,363L284.15,359.96L285.18,355.93L287.05,353.98L284.28,353.95L282.68,350.75L283.05,347.51L282.24,346.64L281.46,343.45L281.85,342.29L280.41,335.72L281.43,334.94L281.84,331.72L283.1,331.95L284.53,329.97L286.41,330.24L286.46,331.84L289.72,332.75L291.23,332.01L293.09,330.34L295.42,330.36L295.42,326.27L296.81,323.81L294.89,321.8L296.45,320.34L299.48,323.04L301.66,323.28L303.43,322.32L304.36,320.09L305.61,319.84L304.76,315.12L302.18,314.58L301.75,312.55L303.12,311.42L303.31,309.54L305.59,308.96L305.99,307.1L307.92,305.34L311.5,305.71L310.25,303.82L307.97,303.82L303.87,305.07L303.16,303.06L304.57,301.06L302.88,298.64Z" class="land" id="IN-MH" title="Maharashtra"/>
    <path d="M617.81,225.68L620.7,224.54L618.26,221.94L619.28,220.18L622.69,217.5L623.94,217.83L629.72,216.44L632.7,217.97L635.02,217.58L638.85,217.77L641.21,220.26L643.83,219.5L643.74,222.04L645.38,221.7L646.51,219.9L648.69,219.86L651.26,216.09L654.1,217.64L654.31,215.58L656.04,214.41L658.05,216.75L659.41,215.94L664.31,215.51L662.65,217.82L662.73,223.17L664.07,222.3L668.08,222.01L669.42,224.13L672.22,225.81L671.31,227.1L674.5,229.77L675.36,232.05L672.66,232.88L671.77,234.04L669.87,233.6L667.93,235.73L664.16,234.45L660.9,232.62L653.84,233.24L652.08,232.9L649.27,233.73L645.34,232.34L641.59,232.48L637.36,233.29L635.76,232.74L630.49,232.92L629.23,233.52L627.06,232.56L622.62,231.9L619.8,230.41L617.37,230.27L617.52,227.02Z" class="land" id="IN-ML" title="Meghalaya"/>
    <path d="M688.49,230.28L689.1,231.56L691.12,232.39L692.78,229.26L695.06,227.22L694.3,225.75L699.09,224.66L701.52,226.08L704.95,226.65L709.7,224.86L709.73,226.3L712.18,227.33L711.18,228.75L710.28,232.12L713.43,233.67L712.9,237.48L711.31,239.44L710.78,241.8L707.93,244.67L706.32,248.52L703.95,252.67L703.61,255.09L701.97,258.85L696.98,256.8L695.19,257.33L694.04,255.77L691.36,255.68L689.29,257L687.34,254.41L685.81,254.91L681.17,255.08L678.73,253.71L680.04,249.23L679.2,248.05L681.25,242.72L684.34,237.3L684.07,235.98L685.78,234.47L686.81,231.53Z" class="land" id="IN-MN" title="Manipur"/>
    <path d="M389.15,200.34L391.93,199.59L392.68,200.56L396.14,201.88L399.07,201.05L402,202.92L404.52,203.31L404.48,205.32L405.84,206.87L407.27,209.97L405.38,211.5L404.71,215.14L403.56,216.01L401.13,220.67L399.68,221.66L400.83,224.1L397.76,225.26L394.58,224.93L393.05,225.9L390.83,229L392.6,232.52L391.47,234.61L391.46,236.36L388.28,238.67L390.31,242.88L390.27,247.19L393.57,250.12L394.95,248.24L396.38,248.96L398.16,251.16L399.95,250.89L402.28,251.58L404,249.03L404.34,247.31L402.33,243.42L400.27,244.33L400.03,239.07L397.24,237.04L396.19,231.28L396.87,228.17L400.03,229.32L399.87,227.01L403.01,226.14L401.47,229.44L402.14,233.09L404.89,231.48L407.01,233.13L409.32,234.07L410.12,232.48L409.75,230.27L411.43,229.82L412.79,231.27L412.48,234.12L414.26,234.73L416.37,233.77L419.27,233.53L421.43,234.42L421.26,231.64L424.2,231.08L424.67,229.62L426.68,229.71L428.06,228.19L430.35,228.75L430.22,230.68L432.57,232.94L431.15,233.51L429.49,235.76L434.25,234.37L437.47,235.29L439.94,233.48L441.33,234.96L440.63,237.63L442.99,237.81L447.04,237.16L449,235.01L449.15,233.06L453.14,233.66L454.98,232.51L457.24,235.49L461.25,236.49L461.45,238.46L468.16,241.17L467.99,242.83L471.5,244.24L471.36,242.55L476.38,242.22L478.44,243.3L477.35,248.41L478.46,250.22L477.37,254.38L479.32,256.69L476.35,257.77L474.97,259.43L469.92,259.81L467.39,259.26L464.37,259.48L461.84,258.45L459.22,259.65L456.84,257.42L455.6,258.83L457.35,261.42L455.69,263.8L455.77,265.63L458.3,264.44L460.09,265.54L461.84,265.14L463.01,267.47L465.41,267.77L467.13,269.19L466.44,272.79L463.95,274L462.27,274.04L462.31,276.41L458.96,278.05L458.83,282.17L456.74,282.79L455.95,284.61L453.28,285.51L450.2,284.9L448.15,286.32L446.03,286.53L446.1,289.41L444.25,290.69L443.85,293.97L442.12,292.84L440.67,296.44L440.17,300.13L438.35,300.83L438.58,305.53L437.13,308.31L435.89,308.42L432.33,306.2L431.53,304.58L429.36,302.63L427.95,302.35L425.51,303.91L421.46,304.38L419.02,302.98L415.17,304.12L414.23,301.57L411.49,301.48L409.13,300.59L406.38,303.04L402.95,303.17L403.31,305.23L396.51,305.24L393.33,302.99L388.59,303.83L388.36,305.01L383.84,307.2L381.11,306.71L376.89,307.64L374.98,307.38L374.4,303.88L376.55,304.4L376.63,302.49L374.75,299.66L371.04,299.83L370.98,300.59L366.85,300.61L363.49,303.01L361.42,303.07L361.2,305.64L358.07,308.22L358.04,311.01L355.38,310.94L353.2,313.27L349.2,313.13L349.21,311.1L347.75,307.46L346.85,307.87L343.62,306.95L336.96,307.49L330.52,306.73L328.47,305.78L327.34,303.71L324.29,302.43L322.11,302.82L317.56,301.42L316.62,300.54L316.94,296.97L314.21,294.78L312.28,296.44L309.46,296.08L308.51,294.88L309.01,291.01L307.76,289.58L308.01,288.12L310.35,288.87L311.66,287.33L309.61,285.03L311.8,282.54L314.13,282.56L315.99,278.34L314.45,277.54L312.93,274.34L314.27,273.37L316.65,273.83L319.72,271.62L319.27,270.48L316.76,269.12L318.63,266.52L323.18,264.7L325.04,261.16L324.36,258.43L326.07,255.38L323.88,251.77L321.97,249.75L322.65,246.9L320.56,245.94L322.27,240.36L324.11,243.11L326.21,242.07L326.35,240.35L323.44,240.01L322.75,237.75L327.06,239.11L328.54,238.53L329.33,235.46L332.99,235.51L332.83,237.07L331.34,238.51L332.2,240.01L331.45,241.59L335.07,242.37L338.24,242.46L341.11,240.96L344.2,244.75L344.03,247.01L341.72,246.64L340.46,248.01L341.38,251.63L340.79,253.22L341.15,256L339.33,255.3L337.66,256.12L336.3,255L335.16,257.51L337.63,259.87L340.51,258.74L343.44,258.22L345.34,257.28L345.04,255.46L348.46,254.09L348.2,252.11L352.23,250.99L356.24,252.76L357.86,251.21L361.53,253.6L363.47,253.39L364.34,251.91L362.3,249.32L362.51,246.76L365.46,246.59L366.7,244.78L365.95,242.02L362.44,241.24L361.54,239.88L363.99,239.3L362.57,236.15L365.31,234.78L366.94,235.21L368.76,234.12L371.37,234.7L373.24,234.13L373.4,231.91L371.42,227.79L369.45,230.24L366.91,229.69L364.62,230.52L359.18,229.57L357.63,228.72L356.02,225.96L356.2,220.7L358.49,218.53L361.63,217.66L363.23,214.91L365.15,214.14L367.86,212.07L369.41,212.08L371.99,209.73L373.91,209.58L378.52,206.77L381.37,205.86L384.89,202.96L386.72,203.35L387,201.11Z" class="land" id="IN-MP" title="Madhya Pradesh"/>
    <path d="M665.4,251.02L667.87,251L668.14,252.97L670,252.48L673.13,249L674.59,245.74L675.84,248.55L679.2,248.05L680.04,249.23L678.73,253.71L681.17,255.08L685.81,254.91L687.01,257.33L687.14,260.63L687.91,262.19L686.37,268.62L686.91,272.85L685.03,275.46L681.8,274.64L681.91,277.27L680.99,281.27L682.02,283.44L681.38,284.75L682.93,286.8L683.28,290.06L682.22,291.69L680.11,291.31L679.37,295.5L676.14,293.94L673.66,292.19L673,294.83L671.54,295.63L671.62,291.79L670,284.15L670.01,282.31L668.36,277.66L666.94,276.85L667.3,274.43L666.66,270.91L667.04,268.46L665.92,266.28L665.37,261.99L664.85,261.28L664.67,259.59L665.69,256.73L666.19,253.08Z" class="land" id="IN-MZ" title="Mizoram"/>
    <path d="M722.25,196.29L723,199.27L722.5,200.06L723.07,203.28L719.73,207.69L721.08,209.13L720.78,214.59L722.05,215.16L718.71,219.25L719.44,221.39L717.19,223.23L716.55,225.23L714.74,226.63L712.18,227.33L709.73,226.3L709.7,224.86L704.95,226.65L701.52,226.08L699.09,224.66L694.3,225.75L695.06,227.22L692.78,229.26L691.12,232.39L689.1,231.56L688.49,230.28L688.25,227.83L685.7,225.63L689,223.48L690.43,221.43L693.03,219.71L693.94,217.99L696.5,219.76L698.4,218.31L697.92,216.6L698.9,213.34L700.92,210.34L702.24,209.99L702.46,207.71L706.63,206.3L706.8,204.69L709.49,202.8L712.27,202.37L714.53,200.93L716.18,198.45L718.13,198.73L720.57,197.78Z" class="land" id="IN-NL" title="Nagaland"/>
    <path d="M502.75,284.97L505.35,285.95L505.69,287.32L508.37,288.57L511.06,288.34L513.03,286.94L520.23,286.98L523.54,285.8L523.69,289.84L522.78,292.98L525.69,293.84L526.84,295.17L528.2,293.08L530.05,292.07L532.89,293.48L534.95,293.41L537.23,295.38L540.07,295.84L542.44,291.55L541.33,290.41L542.35,284.97L547.41,286.44L548.84,288.41L554.58,290.05L556.1,290.96L558.24,293.32L560.69,293.54L562.2,295.39L562.12,297.82L566.14,296.07L566.68,298.83L570.23,299.87L570.98,302.85L568.98,304.09L565.47,304.03L561.16,306.73L559.42,308.59L558.07,312.08L560.94,318.28L558.04,319.53L557.98,321.87L558.17,321.22L560.24,320.46L561.53,320.77L557.3,323.89L556.23,326.46L557.23,327.62L555.26,329.24L552.78,330.28L549.06,335.31L535.32,339.52L529.87,342.13L525.06,345.3L520.6,348.92L517.62,352.61L514.31,351.58L512.3,353.6L511.12,355.7L509.29,356.62L509.22,358.09L505.67,358.41L500.16,357.57L498.53,353.85L496.76,353.69L494.94,352.28L492.46,353.6L489.08,354.21L491.16,356.77L490.08,357.93L487.05,359.07L485.7,358.47L484.09,360.79L483.43,366.08L481.77,366.73L479.15,365L478.52,367.13L474.87,368.32L475.26,366.39L473.98,365.98L473.74,363.74L472.78,363.09L470.57,365.58L470.04,367.4L469.95,372.83L468.72,373.89L466.63,372.77L463.96,372.49L462.54,373.78L458.74,375.71L456.87,376.03L455.85,377.24L451.42,377.41L453.23,374.21L454.22,368.54L458.82,365.56L462.59,362.12L462.85,360.08L466.64,358.11L466.87,356.06L468.18,355.77L467.64,352.23L466.46,348.8L467.07,345.82L465.82,345.7L464.38,343.45L464.65,338.65L460.53,336.2L460.86,333.69L462.33,332.4L466.98,334.83L468,334.44L470.14,337.73L472.16,336.3L477.26,337.71L477.35,334.59L475.22,334.68L471.15,333.23L471.59,330.44L471.2,327.82L471.9,326.05L469.83,323.54L470.7,322.16L470.05,319.53L470.28,317.07L472.48,318.24L473.01,316.68L475.68,314.07L475.95,311.86L480.72,311.87L482.23,311.35L485.44,312.81L486.82,312.13L488.39,307.44L490.81,306.96L489.65,305.07L490.56,302.78L492.58,300.25L492.72,298.82L494.55,298.25L493.59,295.9L493.65,294.09L495.75,290.78L497.85,290.42L499.97,288.44L502.78,287.97L503.52,286.08ZM560.24,320.46L558.17,321.22L557.98,321.87L558.04,319.53Z" class="land" id="IN-OR" title="Odisha"/>
    <path d="M343.32,87.78L342.9,89.12L344.49,90.9L342.76,91.64L340.65,93.71L338.42,94.48L339.74,97.87L343.75,100.06L344.29,102.66L345.87,106.01L348.83,110.57L349.21,112.67L351.63,112.43L352.86,110.54L354.61,112.69L358.28,114.51L357.78,118.61L360.92,120.52L362.06,123.32L359.36,123.39L360.06,124.65L361.9,124.85L363.73,126.54L362.14,129.79L360.68,129.69L357.27,133.27L358.35,134.26L358.11,136.23L355.65,136.8L353.47,135.8L350.82,136.25L349.56,137.98L349.44,140.48L346.52,143.27L343.45,143.26L342.47,141.98L340.05,142.05L336.24,143.01L334.92,142.07L331.71,145.94L329.3,144.91L330.74,143.16L329.78,141.46L327.49,140.67L326.01,141.11L324.56,139.3L322.31,138.44L319.15,139.82L316.78,139.41L304.47,138.89L305.95,135.92L305.94,134.47L304.08,131.07L306.28,128.48L308.41,127.02L311.15,124.19L312.8,121.68L317.15,118.82L318.08,116.82L316.49,115.97L316.62,113.35L319.19,109.67L316.74,104.51L318.37,101.31L322.47,99.96L323.71,98.09L326.31,98.52L328.49,97.45L330.9,97.37L333.33,94.48L332.53,92.46L334.35,92.72L340.16,90.88Z" class="land" id="IN-PB" title="Punjab"/>
    <path d="M420.35,495.04L419.1,493.1L421.08,492.45ZM421.34,514.55L418.9,512.9L420.37,511.16L421.41,511.36Z" class="land" id="IN-PY" title="Puducherry"/>
    <path d="M305.94,134.47L305.95,135.92L304.47,138.89L316.78,139.41L317.46,140.93L315.72,142.47L318.47,143.14L317.71,146.86L318.65,147.57L317.54,149.7L318.3,150.81L321.44,150.93L323.09,149.98L324.78,150.76L325.29,152.38L328.33,153.46L333.97,152.77L333.67,156.53L334.73,157.59L336.28,161.11L337.11,165.47L338.55,166.81L343.65,169.8L346.86,173.12L344.57,175.69L346.02,176.8L345.1,180.17L347.55,180.1L348.86,177.54L353.21,174.81L355.06,174.49L356.38,176.75L361.34,174.44L362.5,173.07L364.68,174.7L363.83,177.57L364.23,179.11L363.09,183.41L364.85,184.24L366.18,181.05L367.91,181.9L370.84,181.31L372.14,184.32L372,186.74L373.85,188.07L373.9,189.3L376.7,190.72L378.63,193.2L376.36,196.41L379.23,197.12L373.71,199.74L374.86,201.29L379.47,199.46L380.2,198.35L382.88,199.3L387.22,198.05L390.18,198.63L389.15,200.34L387,201.11L386.72,203.35L384.89,202.96L381.37,205.86L378.52,206.77L373.91,209.58L371.99,209.73L369.41,212.08L367.86,212.07L365.15,214.14L363.23,214.91L361.63,217.66L358.49,218.53L356.2,220.7L356.02,225.96L357.63,228.72L359.18,229.57L364.62,230.52L366.91,229.69L369.45,230.24L371.42,227.79L373.4,231.91L373.24,234.13L371.37,234.7L368.76,234.12L366.94,235.21L365.31,234.78L362.57,236.15L363.99,239.3L361.54,239.88L362.44,241.24L365.95,242.02L366.7,244.78L365.46,246.59L362.51,246.76L362.3,249.32L364.34,251.91L363.47,253.39L361.53,253.6L357.86,251.21L356.24,252.76L352.23,250.99L348.2,252.11L348.46,254.09L345.04,255.46L345.34,257.28L343.44,258.22L340.51,258.74L337.63,259.87L335.16,257.51L336.3,255L337.66,256.12L339.33,255.3L341.15,256L340.79,253.22L341.38,251.63L340.46,248.01L341.72,246.64L344.03,247.01L344.2,244.75L341.11,240.96L338.24,242.46L335.07,242.37L331.45,241.59L332.2,240.01L331.34,238.51L332.83,237.07L332.99,235.51L329.33,235.46L328.54,238.53L327.06,239.11L322.75,237.75L323.44,240.01L326.35,240.35L326.21,242.07L324.11,243.11L322.27,240.36L320.56,245.94L322.65,246.9L321.97,249.75L323.88,251.77L326.07,255.38L324.36,258.43L325.04,261.16L323.18,264.7L318.63,266.52L316.76,269.12L319.27,270.48L319.72,271.62L316.65,273.83L314.27,273.37L312.93,274.34L311.42,271.88L309.09,272.06L309.22,270.29L307.24,269.05L304.53,268.96L303.31,266.81L301.23,267.48L298.31,262.72L295.23,260.29L294.09,258.67L295.32,257.31L295.1,254.96L291.38,254.03L288.61,252.33L290.32,249.08L289.11,247.6L286.99,246.73L285.5,249.56L284.4,248.79L281.74,248.88L281.05,246.99L278.06,246.02L276.49,247.98L274.4,245.13L273.17,245.4L271.89,243.55L270.62,243.91L268.41,242.12L266.28,243.67L264.96,242.72L260.74,243.54L257.34,242.74L253.61,244.04L249.87,242.61L246.7,237.63L245.7,233.52L243.19,231.15L241.38,228.72L241.65,226.2L241.22,222.68L236,223.33L233.64,222.6L230.04,217.83L229.78,215.29L231.54,211.93L231.45,205.94L229.46,204.99L225.79,205.34L218.5,202.06L218.03,200.93L218.61,196.8L219.88,193.88L225.45,189.23L228.48,186.23L231.24,180.77L235.34,177.36L239.19,177.13L241.34,179.2L241.46,180.67L243.02,183.06L245.5,183.43L253.12,180.62L255.8,180.15L260.68,180.09L265.37,178.35L266.07,175.03L267.3,173.46L270.99,170.5L273.3,164.48L274.92,162.54L281.33,159.18L285.85,157.38L288.74,153.02L292.31,146.99L294.66,139.52L298.97,137.86L302.43,137Z" class="land" id="IN-RJ" title="Rajasthan"/>
    <path d="M595.88,194.22L594.56,193.6L591.53,194.18L589.61,195.53L587.11,194.61L582.82,194.35L581.47,192.84L582.76,188.77L582.05,187.41L585.06,181.63L583.57,178.48L588.79,177.95L593.23,175.49L595.87,176.08L597.47,177.29L597.74,184.01L596.18,186.05L597.01,189.18L599.23,190.73L596.85,192.27Z" class="land" id="IN-SK" title="Sikkim"/>
    <path d="M376.22,367.91L375.62,366.77L377.22,364.32L379.87,362.74L381.85,357.79L383.91,357.5L382.17,354.95L380.48,354.38L380.37,352.79L382.26,350.47L382.31,348.09L384.04,347.32L385.94,348.7L388.38,349.38L388.61,345.94L391.1,345.06L390.33,341.01L391.81,340.02L392.84,337.61L396.88,337.98L399.09,338.97L401.62,339.14L401.88,341.14L404.04,341.28L405.01,343.42L408.14,344.98L409.43,342L411.89,342.81L413.87,344.25L415.29,343.25L419.17,342.18L423.09,344.9L423.73,346.15L423.15,350.67L421.48,351.97L422.98,353.59L422.93,358.24L424.5,358.59L426.43,360.36L429.51,359.54L430.96,362.12L433.74,361.3L436.67,363.45L438.51,365.6L439.71,368.64L438.67,370.25L442.77,372.03L444.51,377.74L447,376.51L448.85,377.3L451.42,377.41L455.85,377.24L456.87,376.03L458.74,375.71L459.21,376.92L455.18,378.99L453.73,381.66L453.55,384.43L452.02,386.14L450.24,385.57L449.11,386.96L447.43,386.91L447.06,388.67L443.7,389.71L442.02,389.28L440.59,392.73L435.25,390.52L433.72,392.24L431.28,393.81L433.83,394.85L435.72,394.67L435.3,397.88L433.21,397.35L430.52,395.76L429.4,393.02L425.16,393.91L424.1,395.91L425.63,396.89L423.44,400.25L419.85,398.54L417.36,399.86L414.4,400.48L413.02,401.42L409.87,401.83L409.07,402.88L408.94,408.14L405.26,408.02L402.79,409.27L400.24,412.38L397.14,410.9L396,411.74L393,411.25L390.07,412.23L389.71,414.23L387.19,416.23L382.84,414.88L381.1,415.48L378.35,415.26L375.42,414.39L374.91,409.73L377.03,406.22L371.01,404.94L374.53,401.39L374.32,395.01L375.22,393.09L374.5,391.19L372.49,390.06L374.29,385.97L378.87,383.32L374.06,381.83L374.26,379.67L376.45,378.58L376.21,377.19L378.1,373.75Z" class="land" id="IN-TG" title="Telangana"/>
    <path d="M389.37,476.52L390.73,478.48L392.26,479.28L396.45,476.17L397.07,472.09L398.81,470.57L402.22,469.98L404.25,470.17L406,471.4L407.64,471.53L408.93,469.01L410.69,469.77L412.71,467.51L413.06,465.33L415.16,465.57L416.03,466.86L422.8,465.08L423.51,462.82L425.62,461.13L427.24,462.28L430.38,463.39L431.02,466.31L430.12,468.94L429.26,475.92L427.34,482.07L422,490.01L421.08,492.45L419.1,493.1L420.35,495.04L419.5,499.84L421.09,503.93L421.41,511.36L420.37,511.16L418.9,512.9L421.34,514.55L421.89,524.69L419.22,525.11L412.21,524.29L410.43,525.39L409.14,527.67L409.89,529.76L407.69,531.83L407.04,533.35L404.53,536.22L402.65,540.7L403.46,542.15L405.9,544.22L397.94,546.34L396.38,547.54L393.09,547.92L389.14,550.91L388.35,552.42L388.36,555.13L387.1,556.95L387.6,559.97L386.36,562.45L381.2,564.86L380.07,566.25L376.72,567.06L376.23,568.22L371.63,567.35L367.32,563.88L370.63,559.18L368.47,555.26L370.19,552.87L368.02,549.88L370.37,547.31L370.66,544.41L373.2,540.37L371.4,538.48L368.41,538.23L369.51,535.96L369.33,533.13L370.93,526.44L368.63,523.71L364.86,526.41L361.89,524.71L361.65,522.37L362.09,519.03L363.42,515.39L361.85,513.6L358.55,512.38L360.31,508.51L358.04,507.25L355.38,506.92L356.41,505.16L353.87,502.39L351.27,501.59L350.25,499.82L352.68,499.47L354.12,497.96L355.71,497.2L356.8,498.93L361.83,499.18L363.46,495.53L365.52,495.15L367.45,495.93L371.01,495.24L373.65,496.17L374.93,492.61L378.38,492.49L380.5,489.21L379.67,488L374.56,487.31L377.27,484.34L377.69,481.92L376.77,481.34L377.01,478.39L379.77,478.26L381.11,475.85L383.43,474.06L384.67,475.68L385.96,474.76L387.41,476.18Z" class="land" id="IN-TN" title="Tamil Nadu"/>
    <path d="M664.11,246.07L665.4,251.02L666.19,253.08L665.69,256.73L664.67,259.59L664.85,261.28L662.78,261.06L660.97,262.93L658.45,262.2L659.1,266.11L656.59,267.72L655.17,270.12L656.35,273.7L654.17,275.79L651.11,276.11L648.99,270.58L647.6,272.05L646.49,270.61L644.95,265.97L643.22,263.76L643.12,261.07L644.38,261.06L644.53,258.25L647.38,253.81L650.66,254.47L652.41,253.95L652.92,252.28L654.55,251.11L657.82,253.17L659.07,248.34L661.92,248.43Z" class="land" id="IN-TR" title="Tripura"/>
    <path d="M376.47,130.37L383.7,133.46L381.87,136.1L380.85,136.34L379.2,140.81L381.69,144.78L384.1,144.08L384.8,147.2L387.77,144.65L389.58,144.1L391.54,142.3L394.6,143.37L395.38,145.66L400.44,148.57L403.14,148.96L400.51,151.45L402.7,154.96L405.18,154.53L410.51,158.83L412.52,159.24L412.71,160.73L419.84,160.03L421.4,160.96L422.74,163.15L424.53,163.06L425.68,161.25L426.61,161.27L433.14,165.19L435.45,164.03L439.77,167.24L445.47,169.97L448.04,170.45L450.19,173.65L452.61,174.34L453.29,175.9L457.68,177.78L461.26,180.32L462.89,178.92L464.85,179.02L472.32,183.82L477.4,182.98L478.34,185.63L477.93,187.26L481.75,187.31L483.8,188.33L486.82,188.23L489.11,190.63L491.16,189.04L490.76,187.73L495.18,187.92L499.93,190.25L500.7,192.04L502.29,193.2L501.51,195.31L503.5,196.25L503.72,199.25L507.65,200.88L509.09,203.32L508.04,204.99L504.3,204.13L503.64,206.08L500.78,206.58L504.11,209.2L506.06,209.41L505.82,211.92L503.06,213.89L505.98,216.24L511,218.85L513.07,219.14L514.86,220.78L512.28,223.06L510.15,221.67L508.95,223.17L504.2,223.85L501.07,225.4L498.77,228.29L497.46,228.3L495.3,229.89L493.67,230.12L489.67,232.79L490.1,233.91L490.03,238.89L490.68,240.58L493.71,243.68L492.86,245.62L490.8,246.13L490.46,249.79L490.97,250.74L489.43,253.97L486.81,257.51L484.79,258.35L481.89,258.39L479.32,256.69L477.37,254.38L478.46,250.22L477.35,248.41L478.44,243.3L476.38,242.22L471.36,242.55L471.5,244.24L467.99,242.83L468.16,241.17L461.45,238.46L461.25,236.49L457.24,235.49L454.98,232.51L453.14,233.66L449.15,233.06L449,235.01L447.04,237.16L442.99,237.81L440.63,237.63L441.33,234.96L439.94,233.48L437.47,235.29L434.25,234.37L429.49,235.76L431.15,233.51L432.57,232.94L430.22,230.68L430.35,228.75L428.06,228.19L426.68,229.71L424.67,229.62L424.2,231.08L421.26,231.64L421.43,234.42L419.27,233.53L416.37,233.77L414.26,234.73L412.48,234.12L412.79,231.27L411.43,229.82L409.75,230.27L410.12,232.48L409.32,234.07L407.01,233.13L404.89,231.48L402.14,233.09L401.47,229.44L403.01,226.14L399.87,227.01L400.03,229.32L396.87,228.17L396.19,231.28L397.24,237.04L400.03,239.07L400.27,244.33L402.33,243.42L404.34,247.31L404,249.03L402.28,251.58L399.95,250.89L398.16,251.16L396.38,248.96L394.95,248.24L393.57,250.12L390.27,247.19L390.31,242.88L388.28,238.67L391.46,236.36L391.47,234.61L392.6,232.52L390.83,229L393.05,225.9L394.58,224.93L397.76,225.26L400.83,224.1L399.68,221.66L401.13,220.67L403.56,216.01L404.71,215.14L405.38,211.5L407.27,209.97L405.84,206.87L404.48,205.32L404.52,203.31L402,202.92L399.07,201.05L396.14,201.88L392.68,200.56L391.93,199.59L389.15,200.34L390.18,198.63L387.22,198.05L382.88,199.3L380.2,198.35L379.47,199.46L374.86,201.29L373.71,199.74L379.23,197.12L376.36,196.41L378.63,193.2L376.7,190.72L373.9,189.3L373.85,188.07L372,186.74L372.14,184.32L370.84,181.31L375.61,178.85L374.82,176.65L375.09,172.02L374.73,169.41L372.05,167.54L372.02,165.58L369.09,160.52L369.63,157.79L367.82,155.83L367.72,150.52L368.16,149.24L367.11,146.13L368.24,144.06L368.96,140.14L370.73,137.35L373.56,136.2L376.7,130.76Z" class="land" id="IN-UP" title="Uttar Pradesh"/>
    <path d="M425.68,161.25L424.53,163.06L422.74,163.15L421.4,160.96L419.84,160.03L412.71,160.73L412.52,159.24L410.51,158.83L405.18,154.53L402.7,154.96L400.51,151.45L403.14,148.96L400.44,148.57L395.38,145.66L394.6,143.37L391.54,142.3L389.58,144.1L387.77,144.65L384.8,147.2L384.1,144.08L381.69,144.78L379.2,140.81L380.85,136.34L381.87,136.1L383.7,133.46L376.47,130.37L381.1,128.27L379.74,126.56L380.71,125.28L378.93,123.22L380.91,121.46L381.05,119.28L382.83,115.65L386.76,114.95L392.03,112.98L394.26,114.69L396.72,114.05L397.74,114.87L400.63,114.67L402.13,116.58L404.58,116.43L402.82,113.61L405.59,109.46L407.18,110.09L409.52,112.87L410.24,115.35L412.14,116.37L412.75,117.95L414.48,117.92L416.16,119.8L419.2,118.56L421.41,119.1L422.59,120.8L427.34,122.36L428.91,123.83L428.49,126.94L432.11,127.88L434.58,129.39L435.72,128.74L438.72,130.49L442.14,133.92L441.5,135.78L437.55,139.12L436.13,139.11L435.13,141.26L431.51,143.19L432.53,145.38L431.15,147.73L429.06,149.19L430.51,151.76L429.62,155.12L427.12,155.89L426.95,157.77L425.44,159.55Z" class="land" id="IN-UT" title="Uttarakhand"/>
    <path d="M581.47,192.84L582.82,194.35L587.11,194.61L589.61,195.53L591.53,194.18L594.56,193.6L595.88,194.22L598.2,195L600.01,198.62L602.52,199.21L603.32,200.89L605.76,200.72L608.15,199.75L609.76,200.93L611.71,200.75L615.94,203.02L617.56,202.94L617.56,209.2L615.47,210.43L614.85,213.48L612.9,213.25L613.55,215.49L611.39,216.63L607.66,216.53L603.94,214.02L603.58,210.45L600.05,207.66L599.01,208.66L600.59,210.76L597.21,211.65L595.83,209.81L591.47,207.29L588.54,205.1L588.35,207.19L590.62,207.7L590.12,209.41L588.04,211.22L588.05,212.43L584.68,213.88L582.84,218.46L583.44,220.73L586.47,221.06L590.1,223.4L589.9,224.64L593.88,227L597.6,227.14L597.69,229.24L599.9,231.26L599.24,233.07L595.05,232.24L592.24,232.86L589.89,232.5L590.04,235.65L587.84,237.55L585.61,237.15L584.58,239.08L582.53,240.87L581.35,242.89L584.04,246.04L587.67,248.45L589.93,248.57L595.55,250.56L594.86,252.7L595.49,257.67L592.94,259.55L592.16,262.98L593.79,263.65L595.99,267.35L595.27,270.61L596.76,271.34L599.06,271.06L600,271.85L598.2,273.69L598.27,275.48L600.11,278.66L599.17,280.24L599.95,281.64L599.53,284L598.18,284.48L597.73,287.57L596.83,289.54L594.51,291.06L593.29,293.05L592.88,295.68L589.37,297.01L585.4,299.8L584.16,295.98L582.18,294.98L580.76,297.97L577.02,301.16L570.98,302.85L570.23,299.87L566.68,298.83L566.14,296.07L562.12,297.82L562.2,295.39L560.69,293.54L558.24,293.32L556.1,290.96L557.61,290.99L559.3,289.41L556.82,283.96L554.7,283.89L554.04,281.97L551.86,281.42L550.08,279.95L550.41,277.07L547.77,275.31L546.09,275.73L542.64,272.75L540.25,273.03L538.52,270.41L539.53,269.22L539.29,266.35L542.85,265.89L546.69,267.34L549.22,266.11L548.94,264.92L550.55,263.22L552.29,263.24L555.53,261.95L557.45,262.09L558.02,259.66L559.47,258.31L563.97,259.98L567.31,257.95L566.2,255.15L571,255.69L571.21,253.7L575.05,253.02L574.04,251.81L576.36,250.01L577.42,247.99L577.34,245.27L578.93,244.93L578.96,239.23L580.62,238.38L578.73,235.8L576.76,234.56L576.98,232.03L578.33,230.9L576.42,228.41L581.55,224.84L582.09,222.81L579.15,221.25L579.39,219.65L577.67,219.26L578.05,215.87L580.52,215.15L583.98,211.78L586.87,209.8L585.58,207.4L583.22,206.24L584.34,204.26L584.88,201.61L583.84,197.42L581.03,195.07ZM583.83,297.63L584.49,300.23L583.28,302.52L581.86,301.55Z" class="land" id="IN-WB" title="West Bengal"/>
  </g>
</svg>